<?xml version="1.0" standalone="no"?>
<!DOCTYPE svg PUBLIC "-//W3C//DTD SVG 20010904//EN"
 "http://www.w3.org/TR/2001/REC-SVG-20010904/DTD/svg10.dtd">
<svg version="1.0" xmlns="http://www.w3.org/2000/svg"
 width="824.000000pt" height="824.000000pt" viewBox="0 0 824.000000 824.000000"
 preserveAspectRatio="xMidYMid meet">
<metadata>
Created by potrace 1.14, written by Peter Selinger 2001-2017
</metadata>
<g transform="translate(0.000000,824.000000) scale(0.100000,-0.100000)"
fill="#000000" stroke="none">
<path d="M2300 8230 c-566 -8 -721 -21 -954 -81 -662 -169 -1148 -688 -1280
-1364 -61 -313 -70 -730 -62 -3015 3 -1078 10 -1865 16 -1953 30 -434 120
-729 308 -1012 76 -115 106 -152 200 -249 147 -150 299 -260 479 -348 252
-121 495 -176 883 -198 234 -13 4259 -13 4480 0 395 24 635 80 895 211 268
134 507 350 674 608 105 163 200 406 241 617 55 285 53 194 57 2514 5 2517 3
2587 -78 2920 -139 565 -546 1023 -1079 1215 -286 103 -449 123 -1110 135
-572 10 -2884 10 -3670 0z m2667 -3262 c1486 -1486 1863 -1868 1863 -1888 0
-14 -9 -40 -20 -58 -19 -31 -24 -33 -58 -28 -57 9 -1596 243 -1685 256 -43 6
-81 9 -84 7 -2 -3 1 -41 7 -84 13 -89 247 -1628 256 -1685 5 -34 3 -39 -28
-58 -18 -11 -44 -20 -58 -20 -37 0 -3750 3713 -3750 3750 0 14 9 40 20 58 19
31 24 33 58 28 69 -11 1606 -244 1685 -256 43 -6 81 -9 84 -7 2 3 -1 41 -7 84
-12 79 -245 1616 -256 1685 -5 34 -3 39 28 58 18 11 44 20 58 20 20 0 403
-378 1887 -1862z"/>
</g>
</svg>
